# xmcd CD database file
#
# Track frame offsets:
#	150
#	20533
#	40410
#	58396
#	72607
#	93675
#	105915
#	123165
#	136960
#	150832
#	163302
#	173813
#	187552
#	200100
#	220764
#	238936
#	251093
#
# Disc length: 3586 seconds
#
# Revision: 1
# Processed by: cddbd v1.4PL0 Copyright (c) Steve Scherf et al.
# Submitted via: CDex 1.50Beta6
#
DISCID=f40e0011
DTITLE=The Travellers - Southern Plains
DYEAR=2003
DGENRE=Country
TTITLE0=Mississipi
TTITLE1=Creedence Medley
TTITLE2=Dust in the wind
TTITLE3=Southern Plains
TTITLE4=Swett home Alabama
TTITLE5=Teach your children
TTITLE6=If you're gonna play in Texas
TTITLE7=Crying in the rain
TTITLE8=I can't stop loving you
TTITLE9=Love of my life
TTITLE10=Return to sender
TTITLE11=Lodi
TTITLE12=Surprise
TTITLE13=Wherever and so far away
TTITLE14=Love me tender
TTITLE15=Travellers Theme
TTITLE16=Questions
EXTD=YEAR: 2003
EXTT0=
EXTT1=
EXTT2=
EXTT3=
EXTT4=
EXTT5=
EXTT6=
EXTT7=
EXTT8=
EXTT9=
EXTT10=
EXTT11=
EXTT12=
EXTT13=
EXTT14=
EXTT15=
EXTT16=
PLAYORDER=
